<svg xmlns="http://www.w3.org/2000/svg" viewBox="0 0 7010 3890" preserveAspectRatio="xMidYMid meet">

<g transform="translate(0.000000,3890.000000) scale(1,-1)"
fill="#000000" stroke="none">
<path d="M1738 3819 c-725 -70 -1324 -599 -1482 -1309 -91 -410 -28 -830 180
-1200 113 -201 321 -426 515 -557 69 -47 148 -114 234 -200 246 -244 514 -386
857 -455 163 -32 443 -32 606 0 649 130 1141 595 1301 1230 21 83 37 192 46
315 4 60 3 77 -8 77 -9 0 -16 -37 -25 -138 -63 -722 -591 -1310 -1305 -1454
-151 -31 -450 -33 -602 -4 -292 54 -573 193 -803 396 -127 112 -135 130 -35
84 375 -171 840 -187 1248 -44 625 220 1074 815 1112 1473 l6 107 -45 0 -45 0
-6 -103 c-17 -276 -109 -542 -273 -790 -89 -134 -282 -329 -414 -416 -191
-127 -410 -217 -625 -257 -137 -26 -431 -26 -560 0 -111 22 -284 77 -383 122
-87 40 -231 125 -254 151 -28 31 -125 225 -156 313 -159 442 -130 895 83 1309
264 511 759 833 1349 877 64 4 95 11 93 18 -5 16 -147 8 -283 -14 -362 -61
-717 -260 -959 -537 -436 -498 -533 -1201 -250 -1800 64 -136 57 -135 -83 6
-299 300 -464 696 -465 1121 0 161 12 256 50 405 74 284 201 504 418 721 221
222 456 355 755 428 87 21 275 46 353 46 14 0 17 9 17 45 l0 45 -37 -1 c-21
-1 -77 -5 -125 -10z"/>
<path d="M1839 2640 c-67 -20 -112 -73 -124 -146 -20 -125 78 -226 205 -211
85 10 135 60 149 148 l8 49 -94 0 -94 0 3 -32 c3 -30 7 -33 41 -38 37 -5 37
-5 22 -27 -25 -36 -86 -32 -119 8 -57 67 -13 179 70 179 8 0 27 -12 41 -26 25
-25 28 -25 65 -13 42 14 46 23 22 58 -34 47 -127 72 -195 51z"/>
<path d="M2110 2465 l0 -175 45 0 44 0 3 63 3 62 40 -62 40 -63 101 0 102 0
12 30 c12 29 15 30 72 30 57 0 59 -1 69 -30 10 -28 15 -30 60 -30 27 0 49 2
49 3 0 2 -29 80 -64 173 l-64 169 -49 3 -50 3 -62 -163 c-35 -90 -64 -164 -66
-166 -4 -5 -95 108 -95 118 0 4 9 10 20 13 11 3 27 22 36 44 14 33 15 43 3 78
-20 57 -61 75 -166 75 l-83 0 0 -175z m158 62 c3 -21 -2 -29 -23 -37 -35 -13
-45 -6 -45 34 0 41 5 46 38 37 20 -5 28 -15 30 -34z m320 -56 c16 -52 16 -51
-18 -51 -16 0 -30 3 -30 6 0 17 24 84 30 84 4 0 12 -17 18 -39z"/>
<path d="M2774 2627 c-2 -7 -3 -85 -2 -172 l3 -160 77 -3 c103 -4 153 10 173
48 8 16 15 38 15 49 0 22 -20 71 -29 71 -3 0 -12 4 -20 9 -11 7 -10 13 5 35
26 41 10 96 -36 118 -43 22 -178 25 -186 5z m144 -92 c2 -10 -2 -21 -10 -26
-26 -17 -38 -9 -38 26 0 31 2 34 23 26 12 -5 24 -16 25 -26z m21 -119 c15 -18
5 -43 -22 -50 -41 -11 -47 -7 -47 29 0 32 3 35 29 35 16 0 34 -6 40 -14z"/>
<path d="M3080 2465 l0 -175 85 0 c131 0 175 25 178 100 1 35 -3 46 -27 67
-21 18 -26 27 -17 36 14 14 15 82 1 107 -14 26 -63 40 -146 40 l-74 0 0 -175z
m147 77 c7 -16 -21 -42 -44 -42 -13 0 -19 51 -7 62 9 10 45 -4 51 -20z m21
-139 c2 -16 -4 -26 -22 -34 -36 -17 -56 -5 -56 31 0 30 2 31 38 28 30 -2 38
-7 40 -25z"/>
<path d="M3390 2465 l0 -176 98 3 97 3 3 38 3 37 -56 0 c-56 0 -56 0 -53 28 3
25 7 27 51 30 46 3 47 4 47 38 l0 34 -50 0 c-49 0 -50 1 -50 30 0 30 0 30 56
30 l55 0 -3 38 -3 37 -97 3 -98 3 0 -176z"/>
<path d="M3805 2633 c-36 -9 -87 -55 -106 -97 -32 -70 -22 -135 29 -189 39
-41 74 -57 127 -57 93 0 165 57 165 131 l0 39 -70 0 c-52 0 -70 -3 -70 -14 0
-10 14 -13 56 -11 64 2 73 -8 50 -53 -17 -33 -87 -72 -130 -72 -41 0 -102 35
-125 74 -38 61 -30 129 22 184 57 60 154 63 207 7 23 -24 50 -33 50 -17 0 13
-41 48 -77 66 -31 15 -85 19 -128 9z"/>
<path d="M4070 2635 c0 -4 25 -49 55 -100 54 -91 55 -96 55 -169 0 -61 3 -76
15 -76 12 0 15 15 15 77 0 74 1 78 55 170 30 52 55 96 55 99 0 2 -6 4 -12 4
-7 0 -35 -38 -62 -85 -27 -47 -51 -83 -54 -81 -3 3 -26 40 -51 83 -40 66 -71
101 -71 78z"/>
<path d="M4420 2633 c0 -12 -58 -297 -66 -325 -3 -11 0 -18 9 -18 10 0 21 33
37 118 13 64 26 126 30 136 5 14 21 -18 60 -115 29 -74 56 -137 59 -141 3 -4
30 54 60 128 30 74 58 134 61 134 4 0 17 -54 31 -121 24 -123 33 -149 45 -136
7 7 -52 310 -65 335 -4 7 -32 -50 -66 -133 -32 -80 -62 -142 -66 -138 -4 4
-31 67 -59 138 -48 122 -70 165 -70 138z"/>
<path d="M4820 2468 c0 -152 2 -178 15 -178 13 0 15 23 15 143 l0 142 52 -55
c29 -30 92 -97 140 -148 l88 -93 0 181 c0 113 -4 180 -10 180 -6 0 -10 -55
-10 -145 0 -80 -2 -145 -4 -145 -5 0 -137 136 -239 245 l-47 50 0 -177z"/>
<path d="M5266 2469 c-38 -93 -66 -172 -63 -175 11 -11 22 4 42 55 l19 51 76
0 76 0 19 -51 c20 -51 31 -66 42 -56 6 7 -128 347 -136 347 -3 0 -37 -77 -75
-171z m102 49 c11 -29 23 -61 27 -70 6 -16 0 -18 -55 -18 -55 0 -61 2 -55 18
4 9 16 41 27 70 12 28 24 52 29 52 4 0 16 -24 27 -52z"/>
<path d="M5579 2611 c-54 -54 -32 -104 69 -155 79 -40 90 -82 35 -126 -36 -28
-69 -25 -105 11 -21 20 -34 27 -41 20 -6 -6 0 -20 21 -40 64 -65 182 -25 182
61 0 46 -15 64 -85 101 -70 38 -83 56 -70 93 15 41 59 52 96 25 33 -25 39 -26
39 -7 0 22 -40 46 -78 46 -24 0 -42 -9 -63 -29z"/>
<path d="M5827 2633 c-4 -3 -7 -82 -7 -175 0 -143 2 -168 15 -168 13 0 15 26
15 175 0 160 -4 188 -23 168z"/>
<path d="M5944 2626 c-3 -9 -4 -75 -3 -147 l4 -131 33 -29 c26 -23 42 -29 78
-29 53 0 97 23 113 57 13 29 15 293 2 293 -5 0 -11 -60 -13 -132 -3 -73 -8
-141 -13 -151 -9 -21 -56 -47 -84 -47 -33 0 -68 21 -80 47 -6 13 -11 78 -11
148 0 114 -10 162 -26 121z"/>
<path d="M6281 2483 c-18 -87 -35 -166 -37 -175 -3 -11 0 -18 8 -18 9 0 21 38
37 118 13 64 27 126 31 136 5 14 21 -18 60 -115 29 -74 56 -137 59 -141 4 -5
31 53 61 127 29 74 56 135 60 135 4 0 18 -54 30 -120 24 -121 33 -150 45 -138
7 7 -52 312 -64 336 -4 7 -32 -49 -66 -133 -32 -80 -62 -142 -66 -138 -4 5
-31 67 -59 138 -28 72 -55 133 -59 138 -4 4 -22 -63 -40 -150z"/>
<path d="M4287 2063 c-9 -48 -19 -103 -23 -120 -5 -26 -3 -33 9 -33 10 0 19
21 29 73 l15 72 34 -72 c29 -65 49 -90 49 -64 0 4 13 37 29 72 32 69 33 68 51
-23 8 -41 16 -58 27 -58 11 0 14 6 10 22 -4 12 -14 66 -23 120 -10 54 -20 98
-23 98 -4 0 -22 -38 -40 -85 -19 -47 -38 -85 -41 -85 -4 0 -22 35 -40 78 -17
42 -35 81 -40 85 -4 5 -14 -31 -23 -80z"/>
<path d="M4623 2135 c-59 -25 -87 -98 -59 -157 21 -43 63 -68 116 -68 34 0 48
6 76 34 28 28 34 42 34 75 0 56 -22 95 -64 115 -41 19 -61 20 -103 1z m96 -30
c33 -16 41 -33 41 -81 0 -24 -8 -43 -25 -59 -71 -72 -187 13 -141 104 27 51
71 64 125 36z"/>
<path d="M3710 2025 l0 -115 40 0 c78 0 130 45 130 112 0 79 -41 118 -125 118
l-45 0 0 -115z m85 85 c27 0 55 -42 55 -82 0 -49 -35 -88 -80 -88 l-30 0 0 83
c0 87 4 101 28 92 7 -3 20 -5 27 -5z"/>
<path d="M3940 2025 l0 -115 55 0 c42 0 55 3 55 15 0 11 -12 15 -46 15 l-45 0
3 43 c3 42 3 42 46 45 56 4 54 22 -3 22 -43 0 -45 1 -45 30 0 28 3 30 38 31
20 1 40 1 45 0 4 0 7 6 7 14 0 12 -13 15 -55 15 l-55 0 0 -115z"/>
<path d="M4093 2128 c2 -7 15 -13 28 -13 24 0 24 -2 27 -102 2 -81 6 -103 17
-103 11 0 15 22 17 103 3 99 4 102 26 101 12 0 22 5 22 13 0 10 -19 13 -71 13
-52 0 -70 -3 -66 -12z"/>
<path d="M4840 2024 l0 -115 48 3 c53 3 64 21 15 26 l-33 3 0 100 c0 81 -3 99
-15 99 -12 0 -15 -20 -15 -116z"/>
<path d="M4970 2025 l0 -115 41 0 c57 0 104 25 123 65 20 41 20 68 1 105 -23
44 -53 60 -112 60 l-53 0 0 -115z m140 46 c29 -55 -18 -131 -79 -131 l-31 0 0
84 c0 80 1 85 23 88 28 5 73 -17 87 -41z"/>
</g>
</svg>
